<svg width="1001" height="496" viewBox="0 0 1001 496" fill="none" xmlns="http://www.w3.org/2000/svg">
<g opacity="0.29827">
<path d="M1008.08 163.448L443.182 -356.858V-747.19L28.1096 -770C24.9043 -762.456 4.36709 -740.714 7.57176 -728.596C11.43 -714.102 30.8387 -718.735 36.4776 -709.409C43.0661 -698.42 31.7291 -653.749 28.3457 -640.86C21.8759 -616.445 7.09676 -596.665 2.82235 -572.25C-4.35982 -531.263 10.1824 -534.53 37.7242 -508.927C84.141 -465.742 46.9244 -420.952 58.6176 -370.223C68.1146 -328.878 109.605 -307.554 124.8 -266.211C136.553 -234.37 152.697 -226.233 177.746 -202.947C177.153 -217.084 164.51 -258.785 188.253 -255.102C211.817 -251.478 202.736 -216.669 207.247 -202.115C211.045 -189.997 237.933 -165.761 215.616 -154.593C208.196 -150.91 187.066 -165.582 178.577 -169.503C184.572 -150.791 180.774 -131.367 190.271 -113.487C201.608 -92.162 213.835 -100.359 228.853 -88.7754C244.344 -76.8355 242.683 -63.1137 235.797 -45.0554C228.615 -26.2247 221.196 -29.1352 232.592 -6.44342C240.843 9.95119 254.85 30.7421 266.9 43.2164C273.904 50.4634 281.502 52.1267 288.506 61.3932C294.323 69.1155 292.067 79.2142 299.012 86.1638C310.883 98.1037 331.006 98.282 340.384 113.904C350.831 131.309 338.96 144.437 369.706 142.833C371.309 177.643 377.897 209.185 377.541 243.994C394.695 250.825 422.414 242.687 440.399 239.063C458.266 263.18 481.355 246.429 501.774 259.558C510.678 265.26 508.837 279.517 514.239 284.506C525.339 294.723 533.529 288.308 547.301 291.872C557.51 294.486 565.404 301.97 575.138 304.703C584.338 307.257 599.475 301.258 606.301 309.396C614.492 319.138 600.78 336.958 613.127 344.799C623.395 351.333 638.115 335.77 648.088 338.027C659.721 340.7 693.079 371.174 701.271 381.212C710.59 392.677 719.969 414.062 725.25 428.793C733.501 451.841 732.373 463.127 749.408 479.998C760.27 490.75 749.942 491.522 767.63 494.67C779.204 496.749 794.518 488.374 806.212 487.067C830.549 484.394 855.122 489.027 879.102 484.453C901.421 480.176 922.729 473.166 945.64 469.899C965.465 467.048 1000.37 469.246 1017.94 459.801C1036.99 449.643 1038.71 426.654 1011.17 430.932C1008.97 416.26 1018.77 396.003 1007.85 385.847C1023.04 365.056 1028.56 350.384 1030.93 324.959C1032 313.792 1032.48 301.436 1038 292.05C1043.4 282.783 1058.59 277.259 1061.56 269.299C1066.13 256.943 1058.83 251.419 1053.25 244.528C1049.69 240.073 1039.54 242.212 1036.63 238.291C1031.23 231.103 1036.57 223.678 1033.6 216.431C1024.94 195.462 1014.61 187.205 1008.08 163.444C1008.26 167.424 1008.44 171.463 1008.2 175.384" stroke="white" stroke-width="2" stroke-linecap="round" stroke-linejoin="round"/>
</g>
<path d="M726.821 83.9913C726.67 108.883 748.544 109.626 769.03 118.392C775.1 120.99 778.089 127.847 774.875 133.826C767.964 146.682 724.313 147.554 731.159 158.686C738.23 170.182 777.38 175.603 779.293 176.253C796.085 181.958 809.967 206.898 808.107 224.025C806.782 236.211 771.768 245.028 759.9 245.457C682.176 248.264 714.478 239.533 633.844 260.998C627.671 262.641 621.307 264.65 616.196 268.471C610.932 272.407 613.783 279.643 617.206 282.869C628.551 293.558 666.074 305.027 664.424 325.115C663.917 331.279 659.437 336.689 658.773 342.84C658.254 347.658 660.235 352.4 660.966 357.181" stroke="white" stroke-width="2"/>
<path fill-rule="evenodd" clip-rule="evenodd" d="M659.5 363C663.09 363 666 360.09 666 356.5C666 352.91 663.09 350 659.5 350C655.91 350 653 352.91 653 356.5C653 360.09 655.91 363 659.5 363Z" fill="#4AF6CD"/>
<path fill-rule="evenodd" clip-rule="evenodd" d="M574 323C575.657 323 577 321.657 577 320C577 318.343 575.657 317 574 317C572.343 317 571 318.343 571 320C571 321.657 572.343 323 574 323Z" fill="#4AF6CD"/>
<path fill-rule="evenodd" clip-rule="evenodd" d="M725 471C726.657 471 728 469.657 728 468C728 466.343 726.657 465 725 465C723.343 465 722 466.343 722 468C722 469.657 723.343 471 725 471Z" fill="#4AF6CD"/>
<path fill-rule="evenodd" clip-rule="evenodd" d="M365 228C366.657 228 368 226.657 368 225C368 223.343 366.657 222 365 222C363.343 222 362 223.343 362 225C362 226.657 363.343 228 365 228Z" fill="#4AF6CD"/>
<path fill-rule="evenodd" clip-rule="evenodd" d="M729.5 91C733.09 91 736 88.0899 736 84.5C736 80.9101 733.09 78 729.5 78C725.91 78 723 80.9101 723 84.5C723 88.0899 725.91 91 729.5 91Z" fill="#4AF6CD"/>
<path d="M486.865 350.976L486.689 352.192H482.417V355.792H486.129V357.008H482.417V360.784H486.993V362H480.897V350.976H486.865ZM494.872 360.032C494.872 360.373 494.931 360.629 495.048 360.8C495.165 360.96 495.341 361.083 495.576 361.168L495.24 362.192C494.803 362.139 494.451 362.016 494.184 361.824C493.917 361.632 493.72 361.333 493.592 360.928C493.027 361.771 492.189 362.192 491.08 362.192C490.248 362.192 489.592 361.957 489.112 361.488C488.632 361.019 488.392 360.405 488.392 359.648C488.392 358.752 488.712 358.064 489.352 357.584C490.003 357.104 490.92 356.864 492.104 356.864H493.4V356.24C493.4 355.643 493.256 355.216 492.968 354.96C492.68 354.704 492.237 354.576 491.64 354.576C491.021 354.576 490.264 354.725 489.368 355.024L489 353.952C490.045 353.568 491.016 353.376 491.912 353.376C492.904 353.376 493.645 353.621 494.136 354.112C494.627 354.592 494.872 355.28 494.872 356.176V360.032ZM491.416 361.088C492.259 361.088 492.92 360.651 493.4 359.776V357.84H492.296C490.739 357.84 489.96 358.416 489.96 359.568C489.96 360.069 490.083 360.448 490.328 360.704C490.573 360.96 490.936 361.088 491.416 361.088ZM500.183 353.376C500.759 353.376 501.276 353.456 501.735 353.616C502.194 353.776 502.631 354.016 503.047 354.336L502.423 355.264C502.039 355.019 501.671 354.837 501.319 354.72C500.978 354.603 500.615 354.544 500.231 354.544C499.751 354.544 499.372 354.645 499.095 354.848C498.818 355.04 498.679 355.307 498.679 355.648C498.679 355.989 498.807 356.256 499.063 356.448C499.33 356.64 499.804 356.827 500.487 357.008C501.426 357.243 502.124 357.563 502.583 357.968C503.052 358.373 503.287 358.928 503.287 359.632C503.287 360.464 502.962 361.099 502.311 361.536C501.671 361.973 500.887 362.192 499.959 362.192C498.679 362.192 497.618 361.824 496.775 361.088L497.559 360.192C498.274 360.736 499.063 361.008 499.927 361.008C500.482 361.008 500.919 360.896 501.239 360.672C501.57 360.437 501.735 360.123 501.735 359.728C501.735 359.44 501.676 359.211 501.559 359.04C501.442 358.859 501.239 358.704 500.951 358.576C500.663 358.437 500.242 358.293 499.687 358.144C498.791 357.909 498.14 357.595 497.735 357.2C497.34 356.805 497.143 356.304 497.143 355.696C497.143 355.259 497.271 354.864 497.527 354.512C497.794 354.149 498.156 353.872 498.615 353.68C499.084 353.477 499.607 353.376 500.183 353.376ZM509.62 361.616C509.065 362 508.436 362.192 507.732 362.192C507.017 362.192 506.457 361.989 506.052 361.584C505.657 361.168 505.46 360.571 505.46 359.792V354.704H503.988V353.568H505.46V351.664L506.932 351.488V353.568H508.932L508.772 354.704H506.932V359.728C506.932 360.165 507.006 360.485 507.156 360.688C507.316 360.88 507.577 360.976 507.94 360.976C508.27 360.976 508.644 360.864 509.06 360.64L509.62 361.616ZM518.179 350.784C518.915 350.784 519.545 350.891 520.067 351.104C520.59 351.307 521.097 351.627 521.587 352.064L520.755 352.992C520.339 352.661 519.929 352.421 519.523 352.272C519.129 352.112 518.702 352.032 518.243 352.032C517.667 352.032 517.193 352.165 516.819 352.432C516.446 352.699 516.259 353.088 516.259 353.6C516.259 353.92 516.323 354.192 516.451 354.416C516.579 354.629 516.814 354.827 517.155 355.008C517.507 355.189 518.014 355.381 518.675 355.584C519.369 355.797 519.945 356.027 520.403 356.272C520.862 356.517 521.23 356.859 521.507 357.296C521.795 357.723 521.939 358.267 521.939 358.928C521.939 359.568 521.779 360.133 521.459 360.624C521.15 361.115 520.697 361.499 520.099 361.776C519.513 362.053 518.814 362.192 518.003 362.192C516.478 362.192 515.23 361.717 514.259 360.768L515.091 359.84C515.539 360.203 515.993 360.48 516.451 360.672C516.91 360.853 517.422 360.944 517.987 360.944C518.67 360.944 519.235 360.779 519.683 360.448C520.131 360.107 520.355 359.616 520.355 358.976C520.355 358.613 520.286 358.315 520.147 358.08C520.009 357.835 519.769 357.616 519.427 357.424C519.097 357.232 518.611 357.04 517.971 356.848C516.841 356.507 516.014 356.096 515.491 355.616C514.969 355.136 514.707 354.485 514.707 353.664C514.707 353.109 514.851 352.613 515.139 352.176C515.438 351.739 515.849 351.397 516.371 351.152C516.905 350.907 517.507 350.784 518.179 350.784ZM528.066 353.376C528.834 353.376 529.431 353.605 529.858 354.064C530.295 354.523 530.514 355.152 530.514 355.952V362H529.042V356.16C529.042 355.563 528.925 355.141 528.69 354.896C528.466 354.651 528.135 354.528 527.698 354.528C527.261 354.528 526.871 354.656 526.53 354.912C526.189 355.168 525.869 355.531 525.57 356V362H524.098V350.192L525.57 350.032V354.736C526.231 353.829 527.063 353.376 528.066 353.376ZM536.641 353.376C537.825 353.376 538.742 353.771 539.393 354.56C540.054 355.349 540.385 356.421 540.385 357.776C540.385 358.651 540.236 359.424 539.937 360.096C539.638 360.757 539.206 361.275 538.641 361.648C538.076 362.011 537.404 362.192 536.625 362.192C535.441 362.192 534.518 361.797 533.857 361.008C533.196 360.219 532.865 359.147 532.865 357.792C532.865 356.917 533.014 356.149 533.313 355.488C533.612 354.816 534.044 354.299 534.609 353.936C535.174 353.563 535.852 353.376 536.641 353.376ZM536.641 354.56C535.18 354.56 534.449 355.637 534.449 357.792C534.449 359.936 535.174 361.008 536.625 361.008C538.076 361.008 538.801 359.931 538.801 357.776C538.801 355.632 538.081 354.56 536.641 354.56ZM546.481 353.376C546.78 353.376 547.057 353.408 547.313 353.472L547.041 354.912C546.785 354.848 546.54 354.816 546.305 354.816C545.782 354.816 545.361 355.008 545.041 355.392C544.721 355.776 544.47 356.373 544.289 357.184V362H542.817V353.568H544.081L544.225 355.28C544.449 354.651 544.753 354.176 545.137 353.856C545.521 353.536 545.969 353.376 546.481 353.376ZM554.872 357.536C554.872 357.781 554.862 358.032 554.84 358.288H549.464C549.528 359.216 549.763 359.899 550.168 360.336C550.574 360.773 551.096 360.992 551.736 360.992C552.142 360.992 552.515 360.933 552.856 360.816C553.198 360.699 553.555 360.512 553.928 360.256L554.568 361.136C553.672 361.84 552.691 362.192 551.624 362.192C550.451 362.192 549.534 361.808 548.872 361.04C548.222 360.272 547.896 359.216 547.896 357.872C547.896 356.997 548.035 356.224 548.312 355.552C548.6 354.869 549.006 354.336 549.528 353.952C550.062 353.568 550.686 353.376 551.4 353.376C552.52 353.376 553.379 353.744 553.976 354.48C554.574 355.216 554.872 356.235 554.872 357.536ZM553.416 357.104C553.416 356.272 553.251 355.637 552.92 355.2C552.59 354.763 552.094 354.544 551.432 354.544C550.227 354.544 549.571 355.429 549.464 357.2H553.416V357.104ZM563.41 349.184V363.568H563.058V349.184H563.41ZM582.237 362H580.765L580.381 357.024C580.221 355.072 580.131 353.573 580.109 352.528L577.725 360.752H576.301L573.789 352.512C573.789 353.845 573.72 355.387 573.581 357.136L573.213 362H571.773L572.685 350.976H574.733L577.053 358.992L579.261 350.976H581.325L582.237 362ZM590.434 360.032C590.434 360.373 590.493 360.629 590.61 360.8C590.728 360.96 590.904 361.083 591.138 361.168L590.802 362.192C590.365 362.139 590.013 362.016 589.746 361.824C589.48 361.632 589.282 361.333 589.154 360.928C588.589 361.771 587.752 362.192 586.642 362.192C585.81 362.192 585.154 361.957 584.674 361.488C584.194 361.019 583.954 360.405 583.954 359.648C583.954 358.752 584.274 358.064 584.914 357.584C585.565 357.104 586.482 356.864 587.666 356.864H588.962V356.24C588.962 355.643 588.818 355.216 588.53 354.96C588.242 354.704 587.8 354.576 587.202 354.576C586.584 354.576 585.826 354.725 584.93 355.024L584.562 353.952C585.608 353.568 586.578 353.376 587.474 353.376C588.466 353.376 589.208 353.621 589.698 354.112C590.189 354.592 590.434 355.28 590.434 356.176V360.032ZM586.978 361.088C587.821 361.088 588.482 360.651 588.962 359.776V357.84H587.858C586.301 357.84 585.522 358.416 585.522 359.568C585.522 360.069 585.645 360.448 585.89 360.704C586.136 360.96 586.498 361.088 586.978 361.088ZM594.981 362.192C594.437 362.192 594.005 362.032 593.685 361.712C593.376 361.381 593.221 360.923 593.221 360.336V350.176L594.693 350V360.304C594.693 360.539 594.731 360.709 594.805 360.816C594.891 360.923 595.029 360.976 595.221 360.976C595.424 360.976 595.605 360.944 595.765 360.88L596.149 361.904C595.797 362.096 595.408 362.192 594.981 362.192ZM599.461 353.568V362H597.989V353.568H599.461ZM598.709 349.52C599.018 349.52 599.269 349.616 599.461 349.808C599.653 350 599.749 350.24 599.749 350.528C599.749 350.816 599.653 351.056 599.461 351.248C599.269 351.429 599.018 351.52 598.709 351.52C598.41 351.52 598.165 351.429 597.973 351.248C597.781 351.056 597.685 350.816 597.685 350.528C597.685 350.24 597.781 350 597.973 349.808C598.165 349.616 598.41 349.52 598.709 349.52ZM606.36 353.376C607.32 353.376 608.083 353.765 608.648 354.544C609.214 355.312 609.496 356.389 609.496 357.776C609.496 358.651 609.363 359.424 609.096 360.096C608.83 360.757 608.446 361.275 607.944 361.648C607.443 362.011 606.856 362.192 606.184 362.192C605.299 362.192 604.552 361.819 603.944 361.072L603.8 362H602.504V350.176L603.976 350V354.624C604.584 353.792 605.379 353.376 606.36 353.376ZM605.832 361.024C606.483 361.024 606.99 360.763 607.352 360.24C607.726 359.707 607.912 358.885 607.912 357.776C607.912 356.635 607.742 355.813 607.4 355.312C607.059 354.8 606.574 354.544 605.944 354.544C605.198 354.544 604.542 354.981 603.976 355.856V359.888C604.2 360.24 604.472 360.517 604.792 360.72C605.123 360.923 605.47 361.024 605.832 361.024ZM618.276 362H617.012L616.9 360.688C616.58 361.211 616.212 361.595 615.796 361.84C615.38 362.075 614.874 362.192 614.276 362.192C613.54 362.192 612.964 361.968 612.548 361.52C612.132 361.072 611.924 360.437 611.924 359.616V353.568H613.396V359.456C613.396 360.032 613.498 360.443 613.7 360.688C613.903 360.923 614.234 361.04 614.692 361.04C615.514 361.04 616.218 360.555 616.804 359.584V353.568H618.276V362ZM621.701 359.968C622.021 359.968 622.288 360.075 622.501 360.288C622.714 360.501 622.821 360.763 622.821 361.072C622.821 361.403 622.725 361.781 622.533 362.208L621.461 364.656H620.405L621.045 362C620.906 361.893 620.794 361.76 620.709 361.6C620.634 361.44 620.597 361.264 620.597 361.072C620.597 360.763 620.704 360.501 620.917 360.288C621.13 360.075 621.392 359.968 621.701 359.968ZM633.331 350.784C633.992 350.784 634.547 350.869 634.995 351.04C635.454 351.211 635.918 351.488 636.387 351.872L635.555 352.848C634.883 352.304 634.174 352.032 633.427 352.032C632.51 352.032 631.768 352.384 631.203 353.088C630.648 353.792 630.371 354.923 630.371 356.48C630.371 357.995 630.648 359.115 631.203 359.84C631.758 360.555 632.494 360.912 633.411 360.912C633.88 360.912 634.291 360.832 634.643 360.672C634.995 360.512 635.368 360.288 635.763 360L636.515 360.96C636.174 361.312 635.736 361.605 635.203 361.84C634.67 362.075 634.056 362.192 633.363 362.192C632.467 362.192 631.667 361.973 630.963 361.536C630.27 361.088 629.726 360.437 629.331 359.584C628.947 358.72 628.755 357.685 628.755 356.48C628.755 355.275 628.958 354.245 629.363 353.392C629.768 352.528 630.318 351.877 631.011 351.44C631.704 351.003 632.478 350.784 633.331 350.784ZM644.3 362L643.468 359.232H639.292L638.46 362H636.924L640.46 350.976H642.38L645.9 362H644.3ZM639.66 358H643.1L641.388 352.24L639.66 358Z" fill="white"/>
<path d="M598.378 75.784C599.039 75.784 599.594 75.8693 600.042 76.04C600.501 76.2107 600.965 76.488 601.434 76.872L600.602 77.848C599.93 77.304 599.221 77.032 598.474 77.032C597.557 77.032 596.815 77.384 596.25 78.088C595.695 78.792 595.418 79.9227 595.418 81.48C595.418 82.9947 595.695 84.1147 596.25 84.84C596.805 85.5547 597.541 85.912 598.458 85.912C598.927 85.912 599.338 85.832 599.69 85.672C600.042 85.512 600.415 85.288 600.81 85L601.562 85.96C601.221 86.312 600.783 86.6053 600.25 86.84C599.717 87.0747 599.103 87.192 598.41 87.192C597.514 87.192 596.714 86.9733 596.01 86.536C595.317 86.088 594.773 85.4373 594.378 84.584C593.994 83.72 593.802 82.6853 593.802 81.48C593.802 80.2747 594.005 79.2453 594.41 78.392C594.815 77.528 595.365 76.8773 596.058 76.44C596.751 76.0027 597.525 75.784 598.378 75.784ZM609.401 87H608.137L608.025 85.688C607.705 86.2107 607.337 86.5947 606.921 86.84C606.505 87.0747 605.999 87.192 605.401 87.192C604.665 87.192 604.089 86.968 603.673 86.52C603.257 86.072 603.049 85.4373 603.049 84.616V78.568H604.521V84.456C604.521 85.032 604.623 85.4427 604.825 85.688C605.028 85.9227 605.359 86.04 605.817 86.04C606.639 86.04 607.343 85.5547 607.929 84.584V78.568H609.401V87ZM616.106 78.376C616.405 78.376 616.682 78.408 616.938 78.472L616.666 79.912C616.41 79.848 616.165 79.816 615.93 79.816C615.407 79.816 614.986 80.008 614.666 80.392C614.346 80.776 614.095 81.3733 613.914 82.184V87H612.442V78.568H613.706L613.85 80.28C614.074 79.6507 614.378 79.176 614.762 78.856C615.146 78.536 615.594 78.376 616.106 78.376ZM622.278 78.376C622.576 78.376 622.854 78.408 623.11 78.472L622.838 79.912C622.582 79.848 622.336 79.816 622.102 79.816C621.579 79.816 621.158 80.008 620.838 80.392C620.518 80.776 620.267 81.3733 620.086 82.184V87H618.614V78.568H619.878L620.022 80.28C620.246 79.6507 620.55 79.176 620.934 78.856C621.318 78.536 621.766 78.376 622.278 78.376ZM630.669 82.536C630.669 82.7813 630.659 83.032 630.637 83.288H625.261C625.325 84.216 625.56 84.8987 625.965 85.336C626.371 85.7733 626.893 85.992 627.533 85.992C627.939 85.992 628.312 85.9333 628.653 85.816C628.995 85.6987 629.352 85.512 629.725 85.256L630.365 86.136C629.469 86.84 628.488 87.192 627.421 87.192C626.248 87.192 625.331 86.808 624.669 86.04C624.019 85.272 623.693 84.216 623.693 82.872C623.693 81.9973 623.832 81.224 624.109 80.552C624.397 79.8693 624.803 79.336 625.325 78.952C625.859 78.568 626.483 78.376 627.197 78.376C628.317 78.376 629.176 78.744 629.773 79.48C630.371 80.216 630.669 81.2347 630.669 82.536ZM629.213 82.104C629.213 81.272 629.048 80.6373 628.717 80.2C628.387 79.7627 627.891 79.544 627.229 79.544C626.024 79.544 625.368 80.4293 625.261 82.2H629.213V82.104ZM636.988 78.376C637.756 78.376 638.353 78.6053 638.78 79.064C639.217 79.5227 639.436 80.152 639.436 80.952V87H637.964V81.16C637.964 80.5627 637.852 80.1413 637.628 79.896C637.404 79.6507 637.073 79.528 636.636 79.528C636.188 79.528 635.793 79.656 635.452 79.912C635.111 80.168 634.791 80.536 634.492 81.016V87H633.02V78.568H634.284L634.412 79.816C634.711 79.368 635.079 79.016 635.516 78.76C635.964 78.504 636.455 78.376 636.988 78.376ZM646.651 86.616C646.096 87 645.467 87.192 644.763 87.192C644.048 87.192 643.488 86.9893 643.083 86.584C642.688 86.168 642.491 85.5707 642.491 84.792V79.704H641.019V78.568H642.491V76.664L643.963 76.488V78.568H645.963L645.803 79.704H643.963V84.728C643.963 85.1653 644.038 85.4853 644.187 85.688C644.347 85.88 644.608 85.976 644.971 85.976C645.302 85.976 645.675 85.864 646.091 85.64L646.651 86.616ZM654.011 75.976V85.672H658.539L658.363 87H652.491V75.976H654.011ZM663.141 78.376C664.325 78.376 665.242 78.7707 665.893 79.56C666.554 80.3493 666.885 81.4213 666.885 82.776C666.885 83.6507 666.736 84.424 666.437 85.096C666.138 85.7573 665.706 86.2747 665.141 86.648C664.576 87.0107 663.904 87.192 663.125 87.192C661.941 87.192 661.018 86.7973 660.357 86.008C659.696 85.2187 659.365 84.1467 659.365 82.792C659.365 81.9173 659.514 81.1493 659.813 80.488C660.112 79.816 660.544 79.2987 661.109 78.936C661.674 78.5627 662.352 78.376 663.141 78.376ZM663.141 79.56C661.68 79.56 660.949 80.6373 660.949 82.792C660.949 84.936 661.674 86.008 663.125 86.008C664.576 86.008 665.301 84.9307 665.301 82.776C665.301 80.632 664.581 79.56 663.141 79.56ZM672.389 78.376C672.89 78.376 673.349 78.4507 673.765 78.6C674.181 78.7387 674.581 78.968 674.965 79.288L674.261 80.216C673.962 80.0027 673.669 79.848 673.381 79.752C673.104 79.6453 672.794 79.592 672.453 79.592C671.77 79.592 671.237 79.864 670.853 80.408C670.48 80.952 670.293 81.7573 670.293 82.824C670.293 83.8907 670.48 84.68 670.853 85.192C671.226 85.6933 671.76 85.944 672.453 85.944C672.784 85.944 673.088 85.896 673.365 85.8C673.642 85.6933 673.952 85.528 674.293 85.304L674.965 86.264C674.197 86.8827 673.338 87.192 672.389 87.192C671.248 87.192 670.346 86.808 669.685 86.04C669.034 85.272 668.709 84.2107 668.709 82.856C668.709 81.96 668.858 81.176 669.157 80.504C669.456 79.832 669.877 79.3093 670.421 78.936C670.976 78.5627 671.632 78.376 672.389 78.376ZM682.481 85.032C682.481 85.3733 682.54 85.6293 682.657 85.8C682.775 85.96 682.951 86.0827 683.185 86.168L682.849 87.192C682.412 87.1387 682.06 87.016 681.793 86.824C681.527 86.632 681.329 86.3333 681.201 85.928C680.636 86.7707 679.799 87.192 678.689 87.192C677.857 87.192 677.201 86.9573 676.721 86.488C676.241 86.0187 676.001 85.4053 676.001 84.648C676.001 83.752 676.321 83.064 676.961 82.584C677.612 82.104 678.529 81.864 679.713 81.864H681.009V81.24C681.009 80.6427 680.865 80.216 680.577 79.96C680.289 79.704 679.847 79.576 679.249 79.576C678.631 79.576 677.873 79.7253 676.977 80.024L676.609 78.952C677.655 78.568 678.625 78.376 679.521 78.376C680.513 78.376 681.255 78.6213 681.745 79.112C682.236 79.592 682.481 80.28 682.481 81.176V85.032ZM679.025 86.088C679.868 86.088 680.529 85.6507 681.009 84.776V82.84H679.905C678.348 82.84 677.569 83.416 677.569 84.568C677.569 85.0693 677.692 85.448 677.937 85.704C678.183 85.96 678.545 86.088 679.025 86.088ZM689.76 86.616C689.206 87 688.576 87.192 687.872 87.192C687.158 87.192 686.598 86.9893 686.192 86.584C685.798 86.168 685.6 85.5707 685.6 84.792V79.704H684.128V78.568H685.6V76.664L687.072 76.488V78.568H689.072L688.912 79.704H687.072V84.728C687.072 85.1653 687.147 85.4853 687.296 85.688C687.456 85.88 687.718 85.976 688.08 85.976C688.411 85.976 688.784 85.864 689.2 85.64L689.76 86.616ZM692.758 78.568V87H691.286V78.568H692.758ZM692.006 74.52C692.315 74.52 692.566 74.616 692.758 74.808C692.95 75 693.046 75.24 693.046 75.528C693.046 75.816 692.95 76.056 692.758 76.248C692.566 76.4293 692.315 76.52 692.006 76.52C691.707 76.52 691.462 76.4293 691.27 76.248C691.078 76.056 690.982 75.816 690.982 75.528C690.982 75.24 691.078 75 691.27 74.808C691.462 74.616 691.707 74.52 692.006 74.52ZM698.969 78.376C700.153 78.376 701.071 78.7707 701.721 79.56C702.383 80.3493 702.713 81.4213 702.713 82.776C702.713 83.6507 702.564 84.424 702.265 85.096C701.967 85.7573 701.535 86.2747 700.969 86.648C700.404 87.0107 699.732 87.192 698.953 87.192C697.769 87.192 696.847 86.7973 696.185 86.008C695.524 85.2187 695.193 84.1467 695.193 82.792C695.193 81.9173 695.343 81.1493 695.641 80.488C695.94 79.816 696.372 79.2987 696.937 78.936C697.503 78.5627 698.18 78.376 698.969 78.376ZM698.969 79.56C697.508 79.56 696.777 80.6373 696.777 82.792C696.777 84.936 697.503 86.008 698.953 86.008C700.404 86.008 701.129 84.9307 701.129 82.776C701.129 80.632 700.409 79.56 698.969 79.56ZM709.113 78.376C709.881 78.376 710.478 78.6053 710.905 79.064C711.342 79.5227 711.561 80.152 711.561 80.952V87H710.089V81.16C710.089 80.5627 709.977 80.1413 709.753 79.896C709.529 79.6507 709.198 79.528 708.761 79.528C708.313 79.528 707.918 79.656 707.577 79.912C707.236 80.168 706.916 80.536 706.617 81.016V87H705.145V78.568H706.409L706.537 79.816C706.836 79.368 707.204 79.016 707.641 78.76C708.089 78.504 708.58 78.376 709.113 78.376Z" fill="white"/>
</svg>
