<svg width="1001" height="496" viewBox="0 0 1001 496" fill="none" xmlns="http://www.w3.org/2000/svg">
<g opacity="0.29827">
<path d="M1008.08 163.448L443.182 -356.858V-747.19L28.1096 -770C24.9043 -762.456 4.36709 -740.714 7.57176 -728.596C11.43 -714.102 30.8387 -718.735 36.4776 -709.409C43.0661 -698.42 31.7291 -653.749 28.3457 -640.86C21.8759 -616.445 7.09676 -596.665 2.82235 -572.25C-4.35982 -531.263 10.1824 -534.53 37.7242 -508.927C84.141 -465.742 46.9244 -420.952 58.6176 -370.223C68.1146 -328.878 109.605 -307.554 124.8 -266.211C136.553 -234.37 152.697 -226.233 177.746 -202.947C177.153 -217.084 164.51 -258.785 188.253 -255.102C211.817 -251.478 202.736 -216.669 207.247 -202.115C211.045 -189.997 237.933 -165.761 215.616 -154.593C208.196 -150.91 187.066 -165.582 178.577 -169.503C184.572 -150.791 180.774 -131.367 190.271 -113.487C201.608 -92.162 213.835 -100.359 228.853 -88.7754C244.344 -76.8355 242.683 -63.1137 235.797 -45.0554C228.615 -26.2247 221.196 -29.1352 232.592 -6.44342C240.843 9.95119 254.85 30.7421 266.9 43.2164C273.904 50.4634 281.502 52.1267 288.506 61.3932C294.323 69.1155 292.067 79.2142 299.012 86.1638C310.883 98.1037 331.006 98.282 340.384 113.904C350.831 131.309 338.96 144.437 369.706 142.833C371.309 177.643 377.897 209.185 377.541 243.994C394.695 250.825 422.414 242.687 440.399 239.063C458.266 263.18 481.355 246.429 501.774 259.558C510.678 265.26 508.837 279.517 514.239 284.506C525.339 294.723 533.529 288.308 547.301 291.872C557.51 294.486 565.404 301.97 575.138 304.703C584.338 307.257 599.475 301.258 606.301 309.396C614.492 319.138 600.78 336.958 613.127 344.799C623.395 351.333 638.115 335.77 648.088 338.027C659.721 340.7 693.079 371.174 701.271 381.212C710.59 392.677 719.969 414.062 725.25 428.793C733.501 451.841 732.373 463.127 749.408 479.998C760.27 490.75 749.942 491.522 767.63 494.67C779.204 496.749 794.518 488.374 806.212 487.067C830.549 484.394 855.122 489.027 879.102 484.453C901.421 480.176 922.729 473.166 945.64 469.899C965.465 467.048 1000.37 469.246 1017.94 459.801C1036.99 449.643 1038.71 426.654 1011.17 430.932C1008.97 416.26 1018.77 396.003 1007.85 385.847C1023.04 365.056 1028.56 350.384 1030.93 324.959C1032 313.792 1032.48 301.436 1038 292.05C1043.4 282.783 1058.59 277.259 1061.56 269.299C1066.13 256.943 1058.83 251.419 1053.25 244.528C1049.69 240.073 1039.54 242.212 1036.63 238.291C1031.23 231.103 1036.57 223.678 1033.6 216.431C1024.94 195.462 1014.61 187.205 1008.08 163.444C1008.26 167.424 1008.44 171.463 1008.2 175.384" stroke="white" stroke-width="2" stroke-linecap="round" stroke-linejoin="round"/>
</g>
<path d="M723.825 87.3143C695.857 106.298 712.316 131.466 718.701 161.247C720.593 170.071 715.283 178.709 706.054 179.695C686.208 181.817 650.729 133.404 643.687 149.668C636.414 166.465 661.294 214.659 662.079 217.309C668.969 240.581 652.039 275.382 631.407 286.468C616.727 294.356 579.186 261.769 569.326 248.753C504.75 163.516 540.05 193.12 452.3 118.967C445.583 113.291 438.305 107.681 429.99 104.874C421.426 101.984 415.584 110.757 414.681 117.088C411.688 138.07 428.518 189.088 404.738 202.689C397.441 206.863 387.848 205.988 380.442 209.975C374.641 213.098 370.901 218.975 366.13 223.475" stroke="white" stroke-width="2"/>
<path fill-rule="evenodd" clip-rule="evenodd" d="M365.5 230C369.09 230 372 227.09 372 223.5C372 219.91 369.09 217 365.5 217C361.91 217 359 219.91 359 223.5C359 227.09 361.91 230 365.5 230Z" fill="#4AF6CD"/>
<path fill-rule="evenodd" clip-rule="evenodd" d="M661 363C662.657 363 664 361.657 664 360C664 358.343 662.657 357 661 357C659.343 357 658 358.343 658 360C658 361.657 659.343 363 661 363Z" fill="#4AF6CD"/>
<path fill-rule="evenodd" clip-rule="evenodd" d="M725 471C726.657 471 728 469.657 728 468C728 466.343 726.657 465 725 465C723.343 465 722 466.343 722 468C722 469.657 723.343 471 725 471Z" fill="#4AF6CD"/>
<path fill-rule="evenodd" clip-rule="evenodd" d="M574 322C575.657 322 577 320.657 577 319C577 317.343 575.657 316 574 316C572.343 316 571 317.343 571 319C571 320.657 572.343 322 574 322Z" fill="#4AF6CD"/>
<path fill-rule="evenodd" clip-rule="evenodd" d="M729.5 91C733.09 91 736 88.0899 736 84.5C736 80.9101 733.09 78 729.5 78C725.91 78 723 80.9101 723 84.5C723 88.0899 725.91 91 729.5 91Z" fill="#4AF6CD"/>
<path d="M178.359 229H176.327L171.847 219.64C171.911 220.376 171.959 221.059 171.991 221.688C172.034 222.307 172.055 223.059 172.055 223.944V229H170.631V217.976H172.615L177.143 227.352C177.111 227.075 177.069 226.589 177.015 225.896C176.962 225.203 176.935 224.568 176.935 223.992V217.976H178.359V229ZM184.641 220.376C185.825 220.376 186.742 220.771 187.393 221.56C188.054 222.349 188.385 223.421 188.385 224.776C188.385 225.651 188.236 226.424 187.937 227.096C187.638 227.757 187.206 228.275 186.641 228.648C186.076 229.011 185.404 229.192 184.625 229.192C183.441 229.192 182.518 228.797 181.857 228.008C181.196 227.219 180.865 226.147 180.865 224.792C180.865 223.917 181.014 223.149 181.313 222.488C181.612 221.816 182.044 221.299 182.609 220.936C183.174 220.563 183.852 220.376 184.641 220.376ZM184.641 221.56C183.18 221.56 182.449 222.637 182.449 224.792C182.449 226.936 183.174 228.008 184.625 228.008C186.076 228.008 186.801 226.931 186.801 224.776C186.801 222.632 186.081 221.56 184.641 221.56ZM194.481 220.376C194.78 220.376 195.057 220.408 195.313 220.472L195.041 221.912C194.785 221.848 194.54 221.816 194.305 221.816C193.782 221.816 193.361 222.008 193.041 222.392C192.721 222.776 192.47 223.373 192.289 224.184V229H190.817V220.568H192.081L192.225 222.28C192.449 221.651 192.753 221.176 193.137 220.856C193.521 220.536 193.969 220.376 194.481 220.376ZM201.245 228.616C200.69 229 200.061 229.192 199.357 229.192C198.642 229.192 198.082 228.989 197.677 228.584C197.282 228.168 197.085 227.571 197.085 226.792V221.704H195.613V220.568H197.085V218.664L198.557 218.488V220.568H200.557L200.397 221.704H198.557V226.728C198.557 227.165 198.631 227.485 198.781 227.688C198.941 227.88 199.202 227.976 199.565 227.976C199.895 227.976 200.269 227.864 200.685 227.64L201.245 228.616ZM206.738 220.376C207.506 220.376 208.103 220.605 208.53 221.064C208.967 221.523 209.186 222.152 209.186 222.952V229H207.714V223.16C207.714 222.563 207.597 222.141 207.362 221.896C207.138 221.651 206.807 221.528 206.37 221.528C205.933 221.528 205.543 221.656 205.202 221.912C204.861 222.168 204.541 222.531 204.242 223V229H202.77V217.192L204.242 217.032V221.736C204.903 220.829 205.735 220.376 206.738 220.376ZM219.179 217.784C219.915 217.784 220.545 217.891 221.067 218.104C221.59 218.307 222.097 218.627 222.587 219.064L221.755 219.992C221.339 219.661 220.929 219.421 220.523 219.272C220.129 219.112 219.702 219.032 219.243 219.032C218.667 219.032 218.193 219.165 217.819 219.432C217.446 219.699 217.259 220.088 217.259 220.6C217.259 220.92 217.323 221.192 217.451 221.416C217.579 221.629 217.814 221.827 218.155 222.008C218.507 222.189 219.014 222.381 219.675 222.584C220.369 222.797 220.945 223.027 221.403 223.272C221.862 223.517 222.23 223.859 222.507 224.296C222.795 224.723 222.939 225.267 222.939 225.928C222.939 226.568 222.779 227.133 222.459 227.624C222.15 228.115 221.697 228.499 221.099 228.776C220.513 229.053 219.814 229.192 219.003 229.192C217.478 229.192 216.23 228.717 215.259 227.768L216.091 226.84C216.539 227.203 216.993 227.48 217.451 227.672C217.91 227.853 218.422 227.944 218.987 227.944C219.67 227.944 220.235 227.779 220.683 227.448C221.131 227.107 221.355 226.616 221.355 225.976C221.355 225.613 221.286 225.315 221.147 225.08C221.009 224.835 220.769 224.616 220.427 224.424C220.097 224.232 219.611 224.04 218.971 223.848C217.841 223.507 217.014 223.096 216.491 222.616C215.969 222.136 215.707 221.485 215.707 220.664C215.707 220.109 215.851 219.613 216.139 219.176C216.438 218.739 216.849 218.397 217.371 218.152C217.905 217.907 218.507 217.784 219.179 217.784ZM229.066 220.376C229.834 220.376 230.431 220.605 230.858 221.064C231.295 221.523 231.514 222.152 231.514 222.952V229H230.042V223.16C230.042 222.563 229.925 222.141 229.69 221.896C229.466 221.651 229.135 221.528 228.698 221.528C228.261 221.528 227.871 221.656 227.53 221.912C227.189 222.168 226.869 222.531 226.57 223V229H225.098V217.192L226.57 217.032V221.736C227.231 220.829 228.063 220.376 229.066 220.376ZM237.641 220.376C238.825 220.376 239.742 220.771 240.393 221.56C241.054 222.349 241.385 223.421 241.385 224.776C241.385 225.651 241.236 226.424 240.937 227.096C240.638 227.757 240.206 228.275 239.641 228.648C239.076 229.011 238.404 229.192 237.625 229.192C236.441 229.192 235.518 228.797 234.857 228.008C234.196 227.219 233.865 226.147 233.865 224.792C233.865 223.917 234.014 223.149 234.313 222.488C234.612 221.816 235.044 221.299 235.609 220.936C236.174 220.563 236.852 220.376 237.641 220.376ZM237.641 221.56C236.18 221.56 235.449 222.637 235.449 224.792C235.449 226.936 236.174 228.008 237.625 228.008C239.076 228.008 239.801 226.931 239.801 224.776C239.801 222.632 239.081 221.56 237.641 221.56ZM247.481 220.376C247.78 220.376 248.057 220.408 248.313 220.472L248.041 221.912C247.785 221.848 247.54 221.816 247.305 221.816C246.782 221.816 246.361 222.008 246.041 222.392C245.721 222.776 245.47 223.373 245.289 224.184V229H243.817V220.568H245.081L245.225 222.28C245.449 221.651 245.753 221.176 246.137 220.856C246.521 220.536 246.969 220.376 247.481 220.376ZM255.872 224.536C255.872 224.781 255.862 225.032 255.84 225.288H250.464C250.528 226.216 250.763 226.899 251.168 227.336C251.574 227.773 252.096 227.992 252.736 227.992C253.142 227.992 253.515 227.933 253.856 227.816C254.198 227.699 254.555 227.512 254.928 227.256L255.568 228.136C254.672 228.84 253.691 229.192 252.624 229.192C251.451 229.192 250.534 228.808 249.872 228.04C249.222 227.272 248.896 226.216 248.896 224.872C248.896 223.997 249.035 223.224 249.312 222.552C249.6 221.869 250.006 221.336 250.528 220.952C251.062 220.568 251.686 220.376 252.4 220.376C253.52 220.376 254.379 220.744 254.976 221.48C255.574 222.216 255.872 223.235 255.872 224.536ZM254.416 224.104C254.416 223.272 254.251 222.637 253.92 222.2C253.59 221.763 253.094 221.544 252.432 221.544C251.227 221.544 250.571 222.429 250.464 224.2H254.416V224.104ZM264.41 216.184V230.568H264.058V216.184H264.41ZM283.237 229H281.765L281.381 224.024C281.221 222.072 281.131 220.573 281.109 219.528L278.725 227.752H277.301L274.789 219.512C274.789 220.845 274.72 222.387 274.581 224.136L274.213 229H272.773L273.685 217.976H275.733L278.053 225.992L280.261 217.976H282.325L283.237 229ZM291.434 227.032C291.434 227.373 291.493 227.629 291.61 227.8C291.728 227.96 291.904 228.083 292.138 228.168L291.802 229.192C291.365 229.139 291.013 229.016 290.746 228.824C290.48 228.632 290.282 228.333 290.154 227.928C289.589 228.771 288.752 229.192 287.642 229.192C286.81 229.192 286.154 228.957 285.674 228.488C285.194 228.019 284.954 227.405 284.954 226.648C284.954 225.752 285.274 225.064 285.914 224.584C286.565 224.104 287.482 223.864 288.666 223.864H289.962V223.24C289.962 222.643 289.818 222.216 289.53 221.96C289.242 221.704 288.8 221.576 288.202 221.576C287.584 221.576 286.826 221.725 285.93 222.024L285.562 220.952C286.608 220.568 287.578 220.376 288.474 220.376C289.466 220.376 290.208 220.621 290.698 221.112C291.189 221.592 291.434 222.28 291.434 223.176V227.032ZM287.978 228.088C288.821 228.088 289.482 227.651 289.962 226.776V224.84H288.858C287.301 224.84 286.522 225.416 286.522 226.568C286.522 227.069 286.645 227.448 286.89 227.704C287.136 227.96 287.498 228.088 287.978 228.088ZM295.981 229.192C295.437 229.192 295.005 229.032 294.685 228.712C294.376 228.381 294.221 227.923 294.221 227.336V217.176L295.693 217V227.304C295.693 227.539 295.731 227.709 295.805 227.816C295.891 227.923 296.029 227.976 296.221 227.976C296.424 227.976 296.605 227.944 296.765 227.88L297.149 228.904C296.797 229.096 296.408 229.192 295.981 229.192ZM300.461 220.568V229H298.989V220.568H300.461ZM299.709 216.52C300.018 216.52 300.269 216.616 300.461 216.808C300.653 217 300.749 217.24 300.749 217.528C300.749 217.816 300.653 218.056 300.461 218.248C300.269 218.429 300.018 218.52 299.709 218.52C299.41 218.52 299.165 218.429 298.973 218.248C298.781 218.056 298.685 217.816 298.685 217.528C298.685 217.24 298.781 217 298.973 216.808C299.165 216.616 299.41 216.52 299.709 216.52ZM307.36 220.376C308.32 220.376 309.083 220.765 309.648 221.544C310.214 222.312 310.496 223.389 310.496 224.776C310.496 225.651 310.363 226.424 310.096 227.096C309.83 227.757 309.446 228.275 308.944 228.648C308.443 229.011 307.856 229.192 307.184 229.192C306.299 229.192 305.552 228.819 304.944 228.072L304.8 229H303.504V217.176L304.976 217V221.624C305.584 220.792 306.379 220.376 307.36 220.376ZM306.832 228.024C307.483 228.024 307.99 227.763 308.352 227.24C308.726 226.707 308.912 225.885 308.912 224.776C308.912 223.635 308.742 222.813 308.4 222.312C308.059 221.8 307.574 221.544 306.944 221.544C306.198 221.544 305.542 221.981 304.976 222.856V226.888C305.2 227.24 305.472 227.517 305.792 227.72C306.123 227.923 306.47 228.024 306.832 228.024ZM319.276 229H318.012L317.9 227.688C317.58 228.211 317.212 228.595 316.796 228.84C316.38 229.075 315.874 229.192 315.276 229.192C314.54 229.192 313.964 228.968 313.548 228.52C313.132 228.072 312.924 227.437 312.924 226.616V220.568H314.396V226.456C314.396 227.032 314.498 227.443 314.7 227.688C314.903 227.923 315.234 228.04 315.692 228.04C316.514 228.04 317.218 227.555 317.804 226.584V220.568H319.276V229ZM322.701 226.968C323.021 226.968 323.288 227.075 323.501 227.288C323.714 227.501 323.821 227.763 323.821 228.072C323.821 228.403 323.725 228.781 323.533 229.208L322.461 231.656H321.405L322.045 229C321.906 228.893 321.794 228.76 321.709 228.6C321.634 228.44 321.597 228.264 321.597 228.072C321.597 227.763 321.704 227.501 321.917 227.288C322.13 227.075 322.392 226.968 322.701 226.968ZM334.331 217.784C334.992 217.784 335.547 217.869 335.995 218.04C336.454 218.211 336.918 218.488 337.387 218.872L336.555 219.848C335.883 219.304 335.174 219.032 334.427 219.032C333.51 219.032 332.768 219.384 332.203 220.088C331.648 220.792 331.371 221.923 331.371 223.48C331.371 224.995 331.648 226.115 332.203 226.84C332.758 227.555 333.494 227.912 334.411 227.912C334.88 227.912 335.291 227.832 335.643 227.672C335.995 227.512 336.368 227.288 336.763 227L337.515 227.96C337.174 228.312 336.736 228.605 336.203 228.84C335.67 229.075 335.056 229.192 334.363 229.192C333.467 229.192 332.667 228.973 331.963 228.536C331.27 228.088 330.726 227.437 330.331 226.584C329.947 225.72 329.755 224.685 329.755 223.48C329.755 222.275 329.958 221.245 330.363 220.392C330.768 219.528 331.318 218.877 332.011 218.44C332.704 218.003 333.478 217.784 334.331 217.784ZM345.3 229L344.468 226.232H340.292L339.46 229H337.924L341.46 217.976H343.38L346.9 229H345.3ZM340.66 225H344.1L342.388 219.24L340.66 225Z" fill="white"/>
<path d="M598.378 75.784C599.039 75.784 599.594 75.8693 600.042 76.04C600.501 76.2107 600.965 76.488 601.434 76.872L600.602 77.848C599.93 77.304 599.221 77.032 598.474 77.032C597.557 77.032 596.815 77.384 596.25 78.088C595.695 78.792 595.418 79.9227 595.418 81.48C595.418 82.9947 595.695 84.1147 596.25 84.84C596.805 85.5547 597.541 85.912 598.458 85.912C598.927 85.912 599.338 85.832 599.69 85.672C600.042 85.512 600.415 85.288 600.81 85L601.562 85.96C601.221 86.312 600.783 86.6053 600.25 86.84C599.717 87.0747 599.103 87.192 598.41 87.192C597.514 87.192 596.714 86.9733 596.01 86.536C595.317 86.088 594.773 85.4373 594.378 84.584C593.994 83.72 593.802 82.6853 593.802 81.48C593.802 80.2747 594.005 79.2453 594.41 78.392C594.815 77.528 595.365 76.8773 596.058 76.44C596.751 76.0027 597.525 75.784 598.378 75.784ZM609.401 87H608.137L608.025 85.688C607.705 86.2107 607.337 86.5947 606.921 86.84C606.505 87.0747 605.999 87.192 605.401 87.192C604.665 87.192 604.089 86.968 603.673 86.52C603.257 86.072 603.049 85.4373 603.049 84.616V78.568H604.521V84.456C604.521 85.032 604.623 85.4427 604.825 85.688C605.028 85.9227 605.359 86.04 605.817 86.04C606.639 86.04 607.343 85.5547 607.929 84.584V78.568H609.401V87ZM616.106 78.376C616.405 78.376 616.682 78.408 616.938 78.472L616.666 79.912C616.41 79.848 616.165 79.816 615.93 79.816C615.407 79.816 614.986 80.008 614.666 80.392C614.346 80.776 614.095 81.3733 613.914 82.184V87H612.442V78.568H613.706L613.85 80.28C614.074 79.6507 614.378 79.176 614.762 78.856C615.146 78.536 615.594 78.376 616.106 78.376ZM622.278 78.376C622.576 78.376 622.854 78.408 623.11 78.472L622.838 79.912C622.582 79.848 622.336 79.816 622.102 79.816C621.579 79.816 621.158 80.008 620.838 80.392C620.518 80.776 620.267 81.3733 620.086 82.184V87H618.614V78.568H619.878L620.022 80.28C620.246 79.6507 620.55 79.176 620.934 78.856C621.318 78.536 621.766 78.376 622.278 78.376ZM630.669 82.536C630.669 82.7813 630.659 83.032 630.637 83.288H625.261C625.325 84.216 625.56 84.8987 625.965 85.336C626.371 85.7733 626.893 85.992 627.533 85.992C627.939 85.992 628.312 85.9333 628.653 85.816C628.995 85.6987 629.352 85.512 629.725 85.256L630.365 86.136C629.469 86.84 628.488 87.192 627.421 87.192C626.248 87.192 625.331 86.808 624.669 86.04C624.019 85.272 623.693 84.216 623.693 82.872C623.693 81.9973 623.832 81.224 624.109 80.552C624.397 79.8693 624.803 79.336 625.325 78.952C625.859 78.568 626.483 78.376 627.197 78.376C628.317 78.376 629.176 78.744 629.773 79.48C630.371 80.216 630.669 81.2347 630.669 82.536ZM629.213 82.104C629.213 81.272 629.048 80.6373 628.717 80.2C628.387 79.7627 627.891 79.544 627.229 79.544C626.024 79.544 625.368 80.4293 625.261 82.2H629.213V82.104ZM636.988 78.376C637.756 78.376 638.353 78.6053 638.78 79.064C639.217 79.5227 639.436 80.152 639.436 80.952V87H637.964V81.16C637.964 80.5627 637.852 80.1413 637.628 79.896C637.404 79.6507 637.073 79.528 636.636 79.528C636.188 79.528 635.793 79.656 635.452 79.912C635.111 80.168 634.791 80.536 634.492 81.016V87H633.02V78.568H634.284L634.412 79.816C634.711 79.368 635.079 79.016 635.516 78.76C635.964 78.504 636.455 78.376 636.988 78.376ZM646.651 86.616C646.096 87 645.467 87.192 644.763 87.192C644.048 87.192 643.488 86.9893 643.083 86.584C642.688 86.168 642.491 85.5707 642.491 84.792V79.704H641.019V78.568H642.491V76.664L643.963 76.488V78.568H645.963L645.803 79.704H643.963V84.728C643.963 85.1653 644.038 85.4853 644.187 85.688C644.347 85.88 644.608 85.976 644.971 85.976C645.302 85.976 645.675 85.864 646.091 85.64L646.651 86.616ZM654.011 75.976V85.672H658.539L658.363 87H652.491V75.976H654.011ZM663.141 78.376C664.325 78.376 665.242 78.7707 665.893 79.56C666.554 80.3493 666.885 81.4213 666.885 82.776C666.885 83.6507 666.736 84.424 666.437 85.096C666.138 85.7573 665.706 86.2747 665.141 86.648C664.576 87.0107 663.904 87.192 663.125 87.192C661.941 87.192 661.018 86.7973 660.357 86.008C659.696 85.2187 659.365 84.1467 659.365 82.792C659.365 81.9173 659.514 81.1493 659.813 80.488C660.112 79.816 660.544 79.2987 661.109 78.936C661.674 78.5627 662.352 78.376 663.141 78.376ZM663.141 79.56C661.68 79.56 660.949 80.6373 660.949 82.792C660.949 84.936 661.674 86.008 663.125 86.008C664.576 86.008 665.301 84.9307 665.301 82.776C665.301 80.632 664.581 79.56 663.141 79.56ZM672.389 78.376C672.89 78.376 673.349 78.4507 673.765 78.6C674.181 78.7387 674.581 78.968 674.965 79.288L674.261 80.216C673.962 80.0027 673.669 79.848 673.381 79.752C673.104 79.6453 672.794 79.592 672.453 79.592C671.77 79.592 671.237 79.864 670.853 80.408C670.48 80.952 670.293 81.7573 670.293 82.824C670.293 83.8907 670.48 84.68 670.853 85.192C671.226 85.6933 671.76 85.944 672.453 85.944C672.784 85.944 673.088 85.896 673.365 85.8C673.642 85.6933 673.952 85.528 674.293 85.304L674.965 86.264C674.197 86.8827 673.338 87.192 672.389 87.192C671.248 87.192 670.346 86.808 669.685 86.04C669.034 85.272 668.709 84.2107 668.709 82.856C668.709 81.96 668.858 81.176 669.157 80.504C669.456 79.832 669.877 79.3093 670.421 78.936C670.976 78.5627 671.632 78.376 672.389 78.376ZM682.481 85.032C682.481 85.3733 682.54 85.6293 682.657 85.8C682.775 85.96 682.951 86.0827 683.185 86.168L682.849 87.192C682.412 87.1387 682.06 87.016 681.793 86.824C681.527 86.632 681.329 86.3333 681.201 85.928C680.636 86.7707 679.799 87.192 678.689 87.192C677.857 87.192 677.201 86.9573 676.721 86.488C676.241 86.0187 676.001 85.4053 676.001 84.648C676.001 83.752 676.321 83.064 676.961 82.584C677.612 82.104 678.529 81.864 679.713 81.864H681.009V81.24C681.009 80.6427 680.865 80.216 680.577 79.96C680.289 79.704 679.847 79.576 679.249 79.576C678.631 79.576 677.873 79.7253 676.977 80.024L676.609 78.952C677.655 78.568 678.625 78.376 679.521 78.376C680.513 78.376 681.255 78.6213 681.745 79.112C682.236 79.592 682.481 80.28 682.481 81.176V85.032ZM679.025 86.088C679.868 86.088 680.529 85.6507 681.009 84.776V82.84H679.905C678.348 82.84 677.569 83.416 677.569 84.568C677.569 85.0693 677.692 85.448 677.937 85.704C678.183 85.96 678.545 86.088 679.025 86.088ZM689.76 86.616C689.206 87 688.576 87.192 687.872 87.192C687.158 87.192 686.598 86.9893 686.192 86.584C685.798 86.168 685.6 85.5707 685.6 84.792V79.704H684.128V78.568H685.6V76.664L687.072 76.488V78.568H689.072L688.912 79.704H687.072V84.728C687.072 85.1653 687.147 85.4853 687.296 85.688C687.456 85.88 687.718 85.976 688.08 85.976C688.411 85.976 688.784 85.864 689.2 85.64L689.76 86.616ZM692.758 78.568V87H691.286V78.568H692.758ZM692.006 74.52C692.315 74.52 692.566 74.616 692.758 74.808C692.95 75 693.046 75.24 693.046 75.528C693.046 75.816 692.95 76.056 692.758 76.248C692.566 76.4293 692.315 76.52 692.006 76.52C691.707 76.52 691.462 76.4293 691.27 76.248C691.078 76.056 690.982 75.816 690.982 75.528C690.982 75.24 691.078 75 691.27 74.808C691.462 74.616 691.707 74.52 692.006 74.52ZM698.969 78.376C700.153 78.376 701.071 78.7707 701.721 79.56C702.383 80.3493 702.713 81.4213 702.713 82.776C702.713 83.6507 702.564 84.424 702.265 85.096C701.967 85.7573 701.535 86.2747 700.969 86.648C700.404 87.0107 699.732 87.192 698.953 87.192C697.769 87.192 696.847 86.7973 696.185 86.008C695.524 85.2187 695.193 84.1467 695.193 82.792C695.193 81.9173 695.343 81.1493 695.641 80.488C695.94 79.816 696.372 79.2987 696.937 78.936C697.503 78.5627 698.18 78.376 698.969 78.376ZM698.969 79.56C697.508 79.56 696.777 80.6373 696.777 82.792C696.777 84.936 697.503 86.008 698.953 86.008C700.404 86.008 701.129 84.9307 701.129 82.776C701.129 80.632 700.409 79.56 698.969 79.56ZM709.113 78.376C709.881 78.376 710.478 78.6053 710.905 79.064C711.342 79.5227 711.561 80.152 711.561 80.952V87H710.089V81.16C710.089 80.5627 709.977 80.1413 709.753 79.896C709.529 79.6507 709.198 79.528 708.761 79.528C708.313 79.528 707.918 79.656 707.577 79.912C707.236 80.168 706.916 80.536 706.617 81.016V87H705.145V78.568H706.409L706.537 79.816C706.836 79.368 707.204 79.016 707.641 78.76C708.089 78.504 708.58 78.376 709.113 78.376Z" fill="white"/>
</svg>
