<svg width="1001" height="496" viewBox="0 0 1001 496" fill="none" xmlns="http://www.w3.org/2000/svg">
<g opacity="0.29827">
<path d="M1008.08 163.448L443.182 -356.858V-747.19L28.1096 -770C24.9043 -762.456 4.36709 -740.714 7.57176 -728.596C11.43 -714.102 30.8387 -718.735 36.4776 -709.409C43.0661 -698.42 31.7291 -653.749 28.3457 -640.86C21.8759 -616.445 7.09676 -596.665 2.82235 -572.25C-4.35982 -531.263 10.1824 -534.53 37.7242 -508.927C84.141 -465.742 46.9244 -420.952 58.6176 -370.223C68.1146 -328.878 109.605 -307.554 124.8 -266.211C136.553 -234.37 152.697 -226.233 177.746 -202.947C177.153 -217.084 164.51 -258.785 188.253 -255.102C211.817 -251.478 202.736 -216.669 207.247 -202.115C211.045 -189.997 237.933 -165.761 215.616 -154.593C208.196 -150.91 187.066 -165.582 178.577 -169.503C184.572 -150.791 180.774 -131.367 190.271 -113.487C201.608 -92.162 213.835 -100.359 228.853 -88.7754C244.344 -76.8355 242.683 -63.1137 235.797 -45.0554C228.615 -26.2247 221.196 -29.1352 232.592 -6.44342C240.843 9.95119 254.85 30.7421 266.9 43.2164C273.904 50.4634 281.502 52.1267 288.506 61.3932C294.323 69.1155 292.067 79.2142 299.012 86.1638C310.883 98.1037 331.006 98.282 340.384 113.904C350.831 131.309 338.96 144.437 369.706 142.833C371.309 177.643 377.897 209.185 377.541 243.994C394.695 250.825 422.414 242.687 440.399 239.063C458.266 263.18 481.355 246.429 501.774 259.558C510.678 265.26 508.837 279.517 514.239 284.506C525.339 294.723 533.529 288.308 547.301 291.872C557.51 294.486 565.404 301.97 575.138 304.703C584.338 307.257 599.475 301.258 606.301 309.396C614.492 319.138 600.78 336.958 613.127 344.799C623.395 351.333 638.115 335.77 648.088 338.027C659.721 340.7 693.079 371.174 701.271 381.212C710.59 392.677 719.969 414.062 725.25 428.793C733.501 451.841 732.373 463.127 749.408 479.998C760.27 490.75 749.942 491.522 767.63 494.67C779.204 496.749 794.518 488.374 806.212 487.067C830.549 484.394 855.122 489.027 879.102 484.453C901.421 480.176 922.729 473.166 945.64 469.899C965.465 467.048 1000.37 469.246 1017.94 459.801C1036.99 449.643 1038.71 426.654 1011.17 430.932C1008.97 416.26 1018.77 396.003 1007.85 385.847C1023.04 365.056 1028.56 350.384 1030.93 324.959C1032 313.792 1032.48 301.436 1038 292.05C1043.4 282.783 1058.59 277.259 1061.56 269.299C1066.13 256.943 1058.83 251.419 1053.25 244.528C1049.69 240.073 1039.54 242.212 1036.63 238.291C1031.23 231.103 1036.57 223.678 1033.6 216.431C1024.94 195.462 1014.61 187.205 1008.08 163.444C1008.26 167.424 1008.44 171.463 1008.2 175.384" stroke="white" stroke-width="2" stroke-linecap="round" stroke-linejoin="round"/>
</g>
<path d="M731.029 86.0565C723.394 120.017 695.97 117.349 667.75 125.854C659.388 128.374 653.518 137.221 655.634 145.911C660.184 164.6 714.17 173.132 702.161 187.156C689.758 201.639 639.39 202.444 636.808 203.008C614.142 207.961 589.047 239.626 585.978 263.288C583.794 280.123 624.546 298.034 639.165 300.614C734.896 317.515 697.487 300.179 790.972 343.005C798.128 346.284 805.407 350.093 810.559 356.162C815.865 362.413 810.048 371.798 804.779 375.62C787.318 388.284 737.07 397.607 732.809 425.271C731.501 433.759 735.37 441.888 734.261 450.384C733.393 457.04 729.44 463.172 727.029 469.567" stroke="white" stroke-width="2"/>
<path fill-rule="evenodd" clip-rule="evenodd" d="M724.5 475C728.09 475 731 472.09 731 468.5C731 464.91 728.09 462 724.5 462C720.91 462 718 464.91 718 468.5C718 472.09 720.91 475 724.5 475Z" fill="#4AF6CD"/>
<path fill-rule="evenodd" clip-rule="evenodd" d="M574 323C575.657 323 577 321.657 577 320C577 318.343 575.657 317 574 317C572.343 317 571 318.343 571 320C571 321.657 572.343 323 574 323Z" fill="#4AF6CD"/>
<path fill-rule="evenodd" clip-rule="evenodd" d="M660 360C661.657 360 663 358.657 663 357C663 355.343 661.657 354 660 354C658.343 354 657 355.343 657 357C657 358.657 658.343 360 660 360Z" fill="#4AF6CD"/>
<path fill-rule="evenodd" clip-rule="evenodd" d="M365 228C366.657 228 368 226.657 368 225C368 223.343 366.657 222 365 222C363.343 222 362 223.343 362 225C362 226.657 363.343 228 365 228Z" fill="#4AF6CD"/>
<path fill-rule="evenodd" clip-rule="evenodd" d="M729.5 91C733.09 91 736 88.0899 736 84.5C736 80.9101 733.09 78 729.5 78C725.91 78 723 80.9101 723 84.5C723 88.0899 725.91 91 729.5 91Z" fill="#4AF6CD"/>
<path d="M531.414 462.784C532.15 462.784 532.779 462.891 533.302 463.104C533.824 463.307 534.331 463.627 534.822 464.064L533.99 464.992C533.574 464.661 533.163 464.421 532.758 464.272C532.363 464.112 531.936 464.032 531.478 464.032C530.902 464.032 530.427 464.165 530.054 464.432C529.68 464.699 529.494 465.088 529.494 465.6C529.494 465.92 529.558 466.192 529.686 466.416C529.814 466.629 530.048 466.827 530.39 467.008C530.742 467.189 531.248 467.381 531.91 467.584C532.603 467.797 533.179 468.027 533.638 468.272C534.096 468.517 534.464 468.859 534.742 469.296C535.03 469.723 535.174 470.267 535.174 470.928C535.174 471.568 535.014 472.133 534.694 472.624C534.384 473.115 533.931 473.499 533.334 473.776C532.747 474.053 532.048 474.192 531.238 474.192C529.712 474.192 528.464 473.717 527.494 472.768L528.326 471.84C528.774 472.203 529.227 472.48 529.686 472.672C530.144 472.853 530.656 472.944 531.222 472.944C531.904 472.944 532.47 472.779 532.918 472.448C533.366 472.107 533.59 471.616 533.59 470.976C533.59 470.613 533.52 470.315 533.382 470.08C533.243 469.835 533.003 469.616 532.662 469.424C532.331 469.232 531.846 469.04 531.206 468.848C530.075 468.507 529.248 468.096 528.726 467.616C528.203 467.136 527.942 466.485 527.942 465.664C527.942 465.109 528.086 464.613 528.374 464.176C528.672 463.739 529.083 463.397 529.606 463.152C530.139 462.907 530.742 462.784 531.414 462.784ZM540.501 465.376C541.685 465.376 542.602 465.771 543.253 466.56C543.914 467.349 544.245 468.421 544.245 469.776C544.245 470.651 544.095 471.424 543.797 472.096C543.498 472.757 543.066 473.275 542.501 473.648C541.935 474.011 541.263 474.192 540.485 474.192C539.301 474.192 538.378 473.797 537.717 473.008C537.055 472.219 536.725 471.147 536.725 469.792C536.725 468.917 536.874 468.149 537.173 467.488C537.471 466.816 537.903 466.299 538.469 465.936C539.034 465.563 539.711 465.376 540.501 465.376ZM540.501 466.56C539.039 466.56 538.309 467.637 538.309 469.792C538.309 471.936 539.034 473.008 540.485 473.008C541.935 473.008 542.661 471.931 542.661 469.776C542.661 467.632 541.941 466.56 540.501 466.56ZM552.948 474H551.684L551.572 472.688C551.252 473.211 550.884 473.595 550.468 473.84C550.052 474.075 549.546 474.192 548.948 474.192C548.212 474.192 547.636 473.968 547.22 473.52C546.804 473.072 546.596 472.437 546.596 471.616V465.568H548.068V471.456C548.068 472.032 548.17 472.443 548.372 472.688C548.575 472.923 548.906 473.04 549.364 473.04C550.186 473.04 550.89 472.555 551.476 471.584V465.568H552.948V474ZM560.245 473.616C559.69 474 559.061 474.192 558.357 474.192C557.642 474.192 557.082 473.989 556.677 473.584C556.282 473.168 556.085 472.571 556.085 471.792V466.704H554.613V465.568H556.085V463.664L557.557 463.488V465.568H559.557L559.397 466.704H557.557V471.728C557.557 472.165 557.631 472.485 557.781 472.688C557.941 472.88 558.202 472.976 558.565 472.976C558.895 472.976 559.269 472.864 559.685 472.64L560.245 473.616ZM565.738 465.376C566.506 465.376 567.103 465.605 567.53 466.064C567.967 466.523 568.186 467.152 568.186 467.952V474H566.714V468.16C566.714 467.563 566.597 467.141 566.362 466.896C566.138 466.651 565.807 466.528 565.37 466.528C564.933 466.528 564.543 466.656 564.202 466.912C563.861 467.168 563.541 467.531 563.242 468V474H561.77V462.192L563.242 462.032V466.736C563.903 465.829 564.735 465.376 565.738 465.376ZM578.179 462.784C578.915 462.784 579.545 462.891 580.067 463.104C580.59 463.307 581.097 463.627 581.587 464.064L580.755 464.992C580.339 464.661 579.929 464.421 579.523 464.272C579.129 464.112 578.702 464.032 578.243 464.032C577.667 464.032 577.193 464.165 576.819 464.432C576.446 464.699 576.259 465.088 576.259 465.6C576.259 465.92 576.323 466.192 576.451 466.416C576.579 466.629 576.814 466.827 577.155 467.008C577.507 467.189 578.014 467.381 578.675 467.584C579.369 467.797 579.945 468.027 580.403 468.272C580.862 468.517 581.23 468.859 581.507 469.296C581.795 469.723 581.939 470.267 581.939 470.928C581.939 471.568 581.779 472.133 581.459 472.624C581.15 473.115 580.697 473.499 580.099 473.776C579.513 474.053 578.814 474.192 578.003 474.192C576.478 474.192 575.23 473.717 574.259 472.768L575.091 471.84C575.539 472.203 575.993 472.48 576.451 472.672C576.91 472.853 577.422 472.944 577.987 472.944C578.67 472.944 579.235 472.779 579.683 472.448C580.131 472.107 580.355 471.616 580.355 470.976C580.355 470.613 580.286 470.315 580.147 470.08C580.009 469.835 579.769 469.616 579.427 469.424C579.097 469.232 578.611 469.04 577.971 468.848C576.841 468.507 576.014 468.096 575.491 467.616C574.969 467.136 574.707 466.485 574.707 465.664C574.707 465.109 574.851 464.613 575.139 464.176C575.438 463.739 575.849 463.397 576.371 463.152C576.905 462.907 577.507 462.784 578.179 462.784ZM588.066 465.376C588.834 465.376 589.431 465.605 589.858 466.064C590.295 466.523 590.514 467.152 590.514 467.952V474H589.042V468.16C589.042 467.563 588.925 467.141 588.69 466.896C588.466 466.651 588.135 466.528 587.698 466.528C587.261 466.528 586.871 466.656 586.53 466.912C586.189 467.168 585.869 467.531 585.57 468V474H584.098V462.192L585.57 462.032V466.736C586.231 465.829 587.063 465.376 588.066 465.376ZM596.641 465.376C597.825 465.376 598.742 465.771 599.393 466.56C600.054 467.349 600.385 468.421 600.385 469.776C600.385 470.651 600.236 471.424 599.937 472.096C599.638 472.757 599.206 473.275 598.641 473.648C598.076 474.011 597.404 474.192 596.625 474.192C595.441 474.192 594.518 473.797 593.857 473.008C593.196 472.219 592.865 471.147 592.865 469.792C592.865 468.917 593.014 468.149 593.313 467.488C593.612 466.816 594.044 466.299 594.609 465.936C595.174 465.563 595.852 465.376 596.641 465.376ZM596.641 466.56C595.18 466.56 594.449 467.637 594.449 469.792C594.449 471.936 595.174 473.008 596.625 473.008C598.076 473.008 598.801 471.931 598.801 469.776C598.801 467.632 598.081 466.56 596.641 466.56ZM606.481 465.376C606.78 465.376 607.057 465.408 607.313 465.472L607.041 466.912C606.785 466.848 606.54 466.816 606.305 466.816C605.782 466.816 605.361 467.008 605.041 467.392C604.721 467.776 604.47 468.373 604.289 469.184V474H602.817V465.568H604.081L604.225 467.28C604.449 466.651 604.753 466.176 605.137 465.856C605.521 465.536 605.969 465.376 606.481 465.376ZM614.872 469.536C614.872 469.781 614.862 470.032 614.84 470.288H609.464C609.528 471.216 609.763 471.899 610.168 472.336C610.574 472.773 611.096 472.992 611.736 472.992C612.142 472.992 612.515 472.933 612.856 472.816C613.198 472.699 613.555 472.512 613.928 472.256L614.568 473.136C613.672 473.84 612.691 474.192 611.624 474.192C610.451 474.192 609.534 473.808 608.872 473.04C608.222 472.272 607.896 471.216 607.896 469.872C607.896 468.997 608.035 468.224 608.312 467.552C608.6 466.869 609.006 466.336 609.528 465.952C610.062 465.568 610.686 465.376 611.4 465.376C612.52 465.376 613.379 465.744 613.976 466.48C614.574 467.216 614.872 468.235 614.872 469.536ZM613.416 469.104C613.416 468.272 613.251 467.637 612.92 467.2C612.59 466.763 612.094 466.544 611.432 466.544C610.227 466.544 609.571 467.429 609.464 469.2H613.416V469.104ZM623.41 461.184V475.568H623.058V461.184H623.41ZM642.237 474H640.765L640.381 469.024C640.221 467.072 640.131 465.573 640.109 464.528L637.725 472.752H636.301L633.789 464.512C633.789 465.845 633.72 467.387 633.581 469.136L633.213 474H631.773L632.685 462.976H634.733L637.053 470.992L639.261 462.976H641.325L642.237 474ZM650.434 472.032C650.434 472.373 650.493 472.629 650.61 472.8C650.728 472.96 650.904 473.083 651.138 473.168L650.802 474.192C650.365 474.139 650.013 474.016 649.746 473.824C649.48 473.632 649.282 473.333 649.154 472.928C648.589 473.771 647.752 474.192 646.642 474.192C645.81 474.192 645.154 473.957 644.674 473.488C644.194 473.019 643.954 472.405 643.954 471.648C643.954 470.752 644.274 470.064 644.914 469.584C645.565 469.104 646.482 468.864 647.666 468.864H648.962V468.24C648.962 467.643 648.818 467.216 648.53 466.96C648.242 466.704 647.8 466.576 647.202 466.576C646.584 466.576 645.826 466.725 644.93 467.024L644.562 465.952C645.608 465.568 646.578 465.376 647.474 465.376C648.466 465.376 649.208 465.621 649.698 466.112C650.189 466.592 650.434 467.28 650.434 468.176V472.032ZM646.978 473.088C647.821 473.088 648.482 472.651 648.962 471.776V469.84H647.858C646.301 469.84 645.522 470.416 645.522 471.568C645.522 472.069 645.645 472.448 645.89 472.704C646.136 472.96 646.498 473.088 646.978 473.088ZM654.981 474.192C654.437 474.192 654.005 474.032 653.685 473.712C653.376 473.381 653.221 472.923 653.221 472.336V462.176L654.693 462V472.304C654.693 472.539 654.731 472.709 654.805 472.816C654.891 472.923 655.029 472.976 655.221 472.976C655.424 472.976 655.605 472.944 655.765 472.88L656.149 473.904C655.797 474.096 655.408 474.192 654.981 474.192ZM659.461 465.568V474H657.989V465.568H659.461ZM658.709 461.52C659.018 461.52 659.269 461.616 659.461 461.808C659.653 462 659.749 462.24 659.749 462.528C659.749 462.816 659.653 463.056 659.461 463.248C659.269 463.429 659.018 463.52 658.709 463.52C658.41 463.52 658.165 463.429 657.973 463.248C657.781 463.056 657.685 462.816 657.685 462.528C657.685 462.24 657.781 462 657.973 461.808C658.165 461.616 658.41 461.52 658.709 461.52ZM666.36 465.376C667.32 465.376 668.083 465.765 668.648 466.544C669.214 467.312 669.496 468.389 669.496 469.776C669.496 470.651 669.363 471.424 669.096 472.096C668.83 472.757 668.446 473.275 667.944 473.648C667.443 474.011 666.856 474.192 666.184 474.192C665.299 474.192 664.552 473.819 663.944 473.072L663.8 474H662.504V462.176L663.976 462V466.624C664.584 465.792 665.379 465.376 666.36 465.376ZM665.832 473.024C666.483 473.024 666.99 472.763 667.352 472.24C667.726 471.707 667.912 470.885 667.912 469.776C667.912 468.635 667.742 467.813 667.4 467.312C667.059 466.8 666.574 466.544 665.944 466.544C665.198 466.544 664.542 466.981 663.976 467.856V471.888C664.2 472.24 664.472 472.517 664.792 472.72C665.123 472.923 665.47 473.024 665.832 473.024ZM678.276 474H677.012L676.9 472.688C676.58 473.211 676.212 473.595 675.796 473.84C675.38 474.075 674.874 474.192 674.276 474.192C673.54 474.192 672.964 473.968 672.548 473.52C672.132 473.072 671.924 472.437 671.924 471.616V465.568H673.396V471.456C673.396 472.032 673.498 472.443 673.7 472.688C673.903 472.923 674.234 473.04 674.692 473.04C675.514 473.04 676.218 472.555 676.804 471.584V465.568H678.276V474ZM681.701 471.968C682.021 471.968 682.288 472.075 682.501 472.288C682.714 472.501 682.821 472.763 682.821 473.072C682.821 473.403 682.725 473.781 682.533 474.208L681.461 476.656H680.405L681.045 474C680.906 473.893 680.794 473.76 680.709 473.6C680.634 473.44 680.597 473.264 680.597 473.072C680.597 472.763 680.704 472.501 680.917 472.288C681.13 472.075 681.392 471.968 681.701 471.968ZM693.331 462.784C693.992 462.784 694.547 462.869 694.995 463.04C695.454 463.211 695.918 463.488 696.387 463.872L695.555 464.848C694.883 464.304 694.174 464.032 693.427 464.032C692.51 464.032 691.768 464.384 691.203 465.088C690.648 465.792 690.371 466.923 690.371 468.48C690.371 469.995 690.648 471.115 691.203 471.84C691.758 472.555 692.494 472.912 693.411 472.912C693.88 472.912 694.291 472.832 694.643 472.672C694.995 472.512 695.368 472.288 695.763 472L696.515 472.96C696.174 473.312 695.736 473.605 695.203 473.84C694.67 474.075 694.056 474.192 693.363 474.192C692.467 474.192 691.667 473.973 690.963 473.536C690.27 473.088 689.726 472.437 689.331 471.584C688.947 470.72 688.755 469.685 688.755 468.48C688.755 467.275 688.958 466.245 689.363 465.392C689.768 464.528 690.318 463.877 691.011 463.44C691.704 463.003 692.478 462.784 693.331 462.784ZM704.3 474L703.468 471.232H699.292L698.46 474H696.924L700.46 462.976H702.38L705.9 474H704.3ZM699.66 470H703.1L701.388 464.24L699.66 470Z" fill="white"/>
<path d="M598.378 75.784C599.039 75.784 599.594 75.8693 600.042 76.04C600.501 76.2107 600.965 76.488 601.434 76.872L600.602 77.848C599.93 77.304 599.221 77.032 598.474 77.032C597.557 77.032 596.815 77.384 596.25 78.088C595.695 78.792 595.418 79.9227 595.418 81.48C595.418 82.9947 595.695 84.1147 596.25 84.84C596.805 85.5547 597.541 85.912 598.458 85.912C598.927 85.912 599.338 85.832 599.69 85.672C600.042 85.512 600.415 85.288 600.81 85L601.562 85.96C601.221 86.312 600.783 86.6053 600.25 86.84C599.717 87.0747 599.103 87.192 598.41 87.192C597.514 87.192 596.714 86.9733 596.01 86.536C595.317 86.088 594.773 85.4373 594.378 84.584C593.994 83.72 593.802 82.6853 593.802 81.48C593.802 80.2747 594.005 79.2453 594.41 78.392C594.815 77.528 595.365 76.8773 596.058 76.44C596.751 76.0027 597.525 75.784 598.378 75.784ZM609.401 87H608.137L608.025 85.688C607.705 86.2107 607.337 86.5947 606.921 86.84C606.505 87.0747 605.999 87.192 605.401 87.192C604.665 87.192 604.089 86.968 603.673 86.52C603.257 86.072 603.049 85.4373 603.049 84.616V78.568H604.521V84.456C604.521 85.032 604.623 85.4427 604.825 85.688C605.028 85.9227 605.359 86.04 605.817 86.04C606.639 86.04 607.343 85.5547 607.929 84.584V78.568H609.401V87ZM616.106 78.376C616.405 78.376 616.682 78.408 616.938 78.472L616.666 79.912C616.41 79.848 616.165 79.816 615.93 79.816C615.407 79.816 614.986 80.008 614.666 80.392C614.346 80.776 614.095 81.3733 613.914 82.184V87H612.442V78.568H613.706L613.85 80.28C614.074 79.6507 614.378 79.176 614.762 78.856C615.146 78.536 615.594 78.376 616.106 78.376ZM622.278 78.376C622.576 78.376 622.854 78.408 623.11 78.472L622.838 79.912C622.582 79.848 622.336 79.816 622.102 79.816C621.579 79.816 621.158 80.008 620.838 80.392C620.518 80.776 620.267 81.3733 620.086 82.184V87H618.614V78.568H619.878L620.022 80.28C620.246 79.6507 620.55 79.176 620.934 78.856C621.318 78.536 621.766 78.376 622.278 78.376ZM630.669 82.536C630.669 82.7813 630.659 83.032 630.637 83.288H625.261C625.325 84.216 625.56 84.8987 625.965 85.336C626.371 85.7733 626.893 85.992 627.533 85.992C627.939 85.992 628.312 85.9333 628.653 85.816C628.995 85.6987 629.352 85.512 629.725 85.256L630.365 86.136C629.469 86.84 628.488 87.192 627.421 87.192C626.248 87.192 625.331 86.808 624.669 86.04C624.019 85.272 623.693 84.216 623.693 82.872C623.693 81.9973 623.832 81.224 624.109 80.552C624.397 79.8693 624.803 79.336 625.325 78.952C625.859 78.568 626.483 78.376 627.197 78.376C628.317 78.376 629.176 78.744 629.773 79.48C630.371 80.216 630.669 81.2347 630.669 82.536ZM629.213 82.104C629.213 81.272 629.048 80.6373 628.717 80.2C628.387 79.7627 627.891 79.544 627.229 79.544C626.024 79.544 625.368 80.4293 625.261 82.2H629.213V82.104ZM636.988 78.376C637.756 78.376 638.353 78.6053 638.78 79.064C639.217 79.5227 639.436 80.152 639.436 80.952V87H637.964V81.16C637.964 80.5627 637.852 80.1413 637.628 79.896C637.404 79.6507 637.073 79.528 636.636 79.528C636.188 79.528 635.793 79.656 635.452 79.912C635.111 80.168 634.791 80.536 634.492 81.016V87H633.02V78.568H634.284L634.412 79.816C634.711 79.368 635.079 79.016 635.516 78.76C635.964 78.504 636.455 78.376 636.988 78.376ZM646.651 86.616C646.096 87 645.467 87.192 644.763 87.192C644.048 87.192 643.488 86.9893 643.083 86.584C642.688 86.168 642.491 85.5707 642.491 84.792V79.704H641.019V78.568H642.491V76.664L643.963 76.488V78.568H645.963L645.803 79.704H643.963V84.728C643.963 85.1653 644.038 85.4853 644.187 85.688C644.347 85.88 644.608 85.976 644.971 85.976C645.302 85.976 645.675 85.864 646.091 85.64L646.651 86.616ZM654.011 75.976V85.672H658.539L658.363 87H652.491V75.976H654.011ZM663.141 78.376C664.325 78.376 665.242 78.7707 665.893 79.56C666.554 80.3493 666.885 81.4213 666.885 82.776C666.885 83.6507 666.736 84.424 666.437 85.096C666.138 85.7573 665.706 86.2747 665.141 86.648C664.576 87.0107 663.904 87.192 663.125 87.192C661.941 87.192 661.018 86.7973 660.357 86.008C659.696 85.2187 659.365 84.1467 659.365 82.792C659.365 81.9173 659.514 81.1493 659.813 80.488C660.112 79.816 660.544 79.2987 661.109 78.936C661.674 78.5627 662.352 78.376 663.141 78.376ZM663.141 79.56C661.68 79.56 660.949 80.6373 660.949 82.792C660.949 84.936 661.674 86.008 663.125 86.008C664.576 86.008 665.301 84.9307 665.301 82.776C665.301 80.632 664.581 79.56 663.141 79.56ZM672.389 78.376C672.89 78.376 673.349 78.4507 673.765 78.6C674.181 78.7387 674.581 78.968 674.965 79.288L674.261 80.216C673.962 80.0027 673.669 79.848 673.381 79.752C673.104 79.6453 672.794 79.592 672.453 79.592C671.77 79.592 671.237 79.864 670.853 80.408C670.48 80.952 670.293 81.7573 670.293 82.824C670.293 83.8907 670.48 84.68 670.853 85.192C671.226 85.6933 671.76 85.944 672.453 85.944C672.784 85.944 673.088 85.896 673.365 85.8C673.642 85.6933 673.952 85.528 674.293 85.304L674.965 86.264C674.197 86.8827 673.338 87.192 672.389 87.192C671.248 87.192 670.346 86.808 669.685 86.04C669.034 85.272 668.709 84.2107 668.709 82.856C668.709 81.96 668.858 81.176 669.157 80.504C669.456 79.832 669.877 79.3093 670.421 78.936C670.976 78.5627 671.632 78.376 672.389 78.376ZM682.481 85.032C682.481 85.3733 682.54 85.6293 682.657 85.8C682.775 85.96 682.951 86.0827 683.185 86.168L682.849 87.192C682.412 87.1387 682.06 87.016 681.793 86.824C681.527 86.632 681.329 86.3333 681.201 85.928C680.636 86.7707 679.799 87.192 678.689 87.192C677.857 87.192 677.201 86.9573 676.721 86.488C676.241 86.0187 676.001 85.4053 676.001 84.648C676.001 83.752 676.321 83.064 676.961 82.584C677.612 82.104 678.529 81.864 679.713 81.864H681.009V81.24C681.009 80.6427 680.865 80.216 680.577 79.96C680.289 79.704 679.847 79.576 679.249 79.576C678.631 79.576 677.873 79.7253 676.977 80.024L676.609 78.952C677.655 78.568 678.625 78.376 679.521 78.376C680.513 78.376 681.255 78.6213 681.745 79.112C682.236 79.592 682.481 80.28 682.481 81.176V85.032ZM679.025 86.088C679.868 86.088 680.529 85.6507 681.009 84.776V82.84H679.905C678.348 82.84 677.569 83.416 677.569 84.568C677.569 85.0693 677.692 85.448 677.937 85.704C678.183 85.96 678.545 86.088 679.025 86.088ZM689.76 86.616C689.206 87 688.576 87.192 687.872 87.192C687.158 87.192 686.598 86.9893 686.192 86.584C685.798 86.168 685.6 85.5707 685.6 84.792V79.704H684.128V78.568H685.6V76.664L687.072 76.488V78.568H689.072L688.912 79.704H687.072V84.728C687.072 85.1653 687.147 85.4853 687.296 85.688C687.456 85.88 687.718 85.976 688.08 85.976C688.411 85.976 688.784 85.864 689.2 85.64L689.76 86.616ZM692.758 78.568V87H691.286V78.568H692.758ZM692.006 74.52C692.315 74.52 692.566 74.616 692.758 74.808C692.95 75 693.046 75.24 693.046 75.528C693.046 75.816 692.95 76.056 692.758 76.248C692.566 76.4293 692.315 76.52 692.006 76.52C691.707 76.52 691.462 76.4293 691.27 76.248C691.078 76.056 690.982 75.816 690.982 75.528C690.982 75.24 691.078 75 691.27 74.808C691.462 74.616 691.707 74.52 692.006 74.52ZM698.969 78.376C700.153 78.376 701.071 78.7707 701.721 79.56C702.383 80.3493 702.713 81.4213 702.713 82.776C702.713 83.6507 702.564 84.424 702.265 85.096C701.967 85.7573 701.535 86.2747 700.969 86.648C700.404 87.0107 699.732 87.192 698.953 87.192C697.769 87.192 696.847 86.7973 696.185 86.008C695.524 85.2187 695.193 84.1467 695.193 82.792C695.193 81.9173 695.343 81.1493 695.641 80.488C695.94 79.816 696.372 79.2987 696.937 78.936C697.503 78.5627 698.18 78.376 698.969 78.376ZM698.969 79.56C697.508 79.56 696.777 80.6373 696.777 82.792C696.777 84.936 697.503 86.008 698.953 86.008C700.404 86.008 701.129 84.9307 701.129 82.776C701.129 80.632 700.409 79.56 698.969 79.56ZM709.113 78.376C709.881 78.376 710.478 78.6053 710.905 79.064C711.342 79.5227 711.561 80.152 711.561 80.952V87H710.089V81.16C710.089 80.5627 709.977 80.1413 709.753 79.896C709.529 79.6507 709.198 79.528 708.761 79.528C708.313 79.528 707.918 79.656 707.577 79.912C707.236 80.168 706.916 80.536 706.617 81.016V87H705.145V78.568H706.409L706.537 79.816C706.836 79.368 707.204 79.016 707.641 78.76C708.089 78.504 708.58 78.376 709.113 78.376Z" fill="white"/>
</svg>
